<svg version="1.2" xmlns="http://www.w3.org/2000/svg" viewBox="0 0 23 20" width="23" height="20">
	<title>about-tab-2-svg</title>
	<defs>
		<linearGradient id="g1" x2="1" gradientUnits="userSpaceOnUse" gradientTransform="matrix(0,12.976,-15.052,0,12.991,4.411)">
			<stop offset="0" stop-color="#ffad97"/>
			<stop offset="1" stop-color="#ff5b2e"/>
		</linearGradient>
		<linearGradient id="g2" x2="1" gradientUnits="userSpaceOnUse" gradientTransform="matrix(0,3.374,-18.166,0,12.991,1.297)">
			<stop offset="0" stop-color="#ffad97"/>
			<stop offset="1" stop-color="#ff5b2e"/>
		</linearGradient>
		<linearGradient id="g3" x2="1" gradientUnits="userSpaceOnUse" gradientTransform="matrix(0,-2.076,2.076,0,18.701,2.076)">
			<stop offset="0" stop-color="#ffad97"/>
			<stop offset="1" stop-color="#ff5b2e"/>
		</linearGradient>
		<linearGradient id="g4" x2="1" gradientUnits="userSpaceOnUse" gradientTransform="matrix(0,7.024,-7.493,0,5.49,12.976)">
			<stop offset="0" stop-color="#ff9071"/>
			<stop offset="1" stop-color="#ff5b2e"/>
		</linearGradient>
	</defs>
	<style>
		.s0 { fill: url(#g1) } 
		.s1 { fill: url(#g2) } 
		.s2 { fill: url(#g3) } 
		.s3 { fill: #fffaf5 } 
		.s4 { fill: url(#g4) } 
		.s5 { fill: none;stroke: #ffffff;stroke-linecap: round;stroke-linejoin: round;stroke-width: .5 } 
	</style>
	<path id="Layer" class="s0" d="m5.5 4.4h15v13h-15z"/>
	<path id="Layer" class="s1" d="m4.9 1.3h16.1l1.1 3.4h-18.2z"/>
	<path id="Layer" class="s2" d="m17.7 2.1h2v-2.1h-2z"/>
	<path id="Layer" class="s3" d="m7 6.7c0-0.2 0.2-0.5 0.5-0.5h1.6c0.3 0 0.5 0.3 0.5 0.5v1.6c0 0.3-0.2 0.5-0.5 0.5h-1.6c-0.3 0-0.5-0.2-0.5-0.5z"/>
	<path id="Layer" class="s3" d="m7 11.9c0-0.3 0.2-0.5 0.5-0.5h1.6c0.3 0 0.5 0.2 0.5 0.5v1.6c0 0.3-0.2 0.5-0.5 0.5h-1.6c-0.3 0-0.5-0.2-0.5-0.5z"/>
	<path id="Layer" class="s3" d="m11.7 6.7c0-0.2 0.2-0.5 0.5-0.5h1.6c0.3 0 0.5 0.3 0.5 0.5v1.6c0 0.3-0.2 0.5-0.5 0.5h-1.6c-0.3 0-0.5-0.2-0.5-0.5z"/>
	<path id="Layer" class="s3" d="m11.7 11.9c0-0.3 0.2-0.5 0.5-0.5h1.6c0.3 0 0.5 0.2 0.5 0.5v1.6c0 0.3-0.2 0.5-0.5 0.5h-1.6c-0.3 0-0.5-0.2-0.5-0.5z"/>
	<path id="Layer" class="s3" d="m16.4 6.7c0-0.2 0.2-0.5 0.5-0.5h1.6c0.2 0 0.5 0.3 0.5 0.5v1.6c0 0.3-0.3 0.5-0.5 0.5h-1.6c-0.3 0-0.5-0.2-0.5-0.5z"/>
	<path id="Layer" class="s3" d="m16.4 11.9c0-0.3 0.2-0.5 0.5-0.5h1.6c0.2 0 0.5 0.2 0.5 0.5v1.6c0 0.3-0.3 0.5-0.5 0.5h-1.6c-0.3 0-0.5-0.2-0.5-0.5z"/>
	<g id="Layer">
		<path id="Layer" fill-rule="evenodd" class="s4" d="m5.5 13.6c2.1-2.1 7.3 1.6 0 6.4-7.3-4.8-2.1-8.5 0-6.4z"/>
	</g>
	<g id="Layer">
		<path id="Layer" fill-rule="evenodd" class="s5" d="m1.1 16.9h1.4l0.6-1.2 1 2.4 0.9-1.8 0.8 0.6 0.8-2.1 1 2.6 0.4-0.5h1.9"/>
	</g>
</svg>