<svg version="1.2" xmlns="http://www.w3.org/2000/svg" viewBox="0 0 20 20" width="20" height="20">
	<title>about-tab-3-svg</title>
	<defs>
		<linearGradient id="g1" x2="1" gradientUnits="userSpaceOnUse" gradientTransform="matrix(0,2.777,-7.718,0,10.074,0)">
			<stop offset="0" stop-color="#ffd986"/>
			<stop offset="1" stop-color="#fabf3e"/>
		</linearGradient>
		<linearGradient id="g2" x2="1" gradientUnits="userSpaceOnUse" gradientTransform="matrix(0,17.223,-18.793,0,10.074,2.777)">
			<stop offset="0" stop-color="#ffd986"/>
			<stop offset="1" stop-color="#fabf3e"/>
		</linearGradient>
		<linearGradient id="g3" x2="1" gradientUnits="userSpaceOnUse" gradientTransform="matrix(-7.561,15.5,-9.92,-4.839,18.5,4.5)">
			<stop offset="0" stop-color="#ffd984"/>
			<stop offset="1" stop-color="#f5b42a"/>
		</linearGradient>
	</defs>
	<style>
		.s0 { fill: url(#g1) } 
		.s1 { fill: url(#g2) } 
		.s2 { fill: url(#g3) } 
		.s3 { fill: #fff9e2 } 
		.s4 { fill: #ffffff } 
		.s5 { fill: #ffe5ac } 
		.s6 { fill: #fff6e1 } 
	</style>
	<path id="Layer" class="s0" d="m12.7 0h-5.3c-0.6 0-1.2 0.5-1.2 1.2v1.6h1.2v-1.4c0-0.1 0.1-0.2 0.3-0.2h4.8c0.1 0 0.2 0.1 0.2 0.2v1.4h1.2v-1.6c0-0.7-0.5-1.2-1.2-1.2z"/>
	<path id="Layer" class="s1" d="m0.7 12l1.6 7.1c0.1 0.5 0.6 0.9 1.2 0.9h13.2c0.6 0 1-0.4 1.2-0.9l1.6-7.1v-1.8l-1.6-6.5c-0.1-0.5-0.6-0.9-1.2-0.9h-13.2c-0.6 0-1.1 0.4-1.2 0.9l-1.6 7.1z"/>
	<path id="Layer" class="s2" d="m17.9 3.7c-0.1-0.5-0.6-0.9-1.2-0.9h-0.2q0.1 0.1 0.2 0.3l1.1 4.7c0.3 1.2 0.7 2.4 0.5 3.6-1.1 4.7-5.2 8-10 8q-2.9 0-5.9 0c0.2 0.4 0.6 0.6 1.1 0.6h13.2c0.6 0 1-0.4 1.2-0.9l1.6-7.1v-1.8z"/>
	<path id="Layer" class="s3" d="m10.1 8.4c-0.4 0-0.6-0.3-0.6-0.6v-2c0-0.4 0.2-0.6 0.6-0.6 0.3 0 0.6 0.2 0.6 0.6v2c0 0.3-0.3 0.6-0.6 0.6z"/>
	<path id="Layer" class="s3" d="m14.3 8.4c-0.3 0-0.5-0.2-0.6-0.4l-0.6-2.1c-0.1-0.3 0.1-0.6 0.4-0.7 0.3-0.1 0.7 0.1 0.8 0.4l0.6 2c0.1 0.3-0.1 0.7-0.4 0.8q-0.1 0-0.2 0z"/>
	<path id="Layer" class="s3" d="m5.8 8.4q0 0-0.1 0c-0.3-0.1-0.5-0.5-0.4-0.8l0.6-2c0.1-0.3 0.4-0.5 0.7-0.4 0.3 0.1 0.5 0.4 0.4 0.7l-0.6 2.1c-0.1 0.2-0.3 0.4-0.6 0.4z"/>
	<path id="Layer" class="s3" d="m10.1 17.3c-0.4 0-0.6-0.3-0.6-0.6v-2c0-0.4 0.2-0.6 0.6-0.6 0.3 0 0.6 0.2 0.6 0.6v2c0 0.3-0.3 0.6-0.6 0.6z"/>
	<path id="Layer" class="s3" d="m13.7 17.3q-0.1 0-0.2 0c-0.3-0.1-0.5-0.4-0.4-0.8l0.6-2c0.1-0.3 0.5-0.5 0.8-0.4 0.3 0.1 0.5 0.4 0.4 0.8l-0.6 2c-0.1 0.2-0.3 0.4-0.6 0.4z"/>
	<path id="Layer" class="s3" d="m6.5 17.3c-0.3 0-0.5-0.2-0.6-0.4l-0.6-2c-0.1-0.4 0.1-0.7 0.4-0.8 0.3-0.1 0.6 0.1 0.7 0.4l0.6 2c0.1 0.4-0.1 0.7-0.4 0.8q-0.1 0-0.1 0z"/>
	<g id="Layer">
		<path id="Layer" class="s4" d="m19.7 12h-19.2c-0.2 0-0.4-0.2-0.4-0.4v-1c0-0.2 0.2-0.4 0.4-0.4h19.2c0.2 0 0.4 0.2 0.4 0.4v1c0 0.2-0.2 0.4-0.4 0.4z"/>
	</g>
	<g id="Layer">
		<path id="Layer" class="s5" d="m11.8 12.4h-3.5c-0.2 0-0.4-0.1-0.4-0.4v-1.9c0-0.2 0.2-0.4 0.4-0.4h3.5c0.2 0 0.4 0.2 0.4 0.4v1.9c0 0.3-0.2 0.4-0.4 0.4z"/>
	</g>
	<path id="Layer" class="s6" d="m11.8 9.7h-0.8c0 1.2-0.9 2.1-2.1 2.1h-1v0.2c0 0.3 0.2 0.4 0.4 0.4h3.5c0.2 0 0.4-0.1 0.4-0.4v-1.9c0-0.2-0.2-0.4-0.4-0.4z"/>
</svg>